<svg width="60" height="60" viewBox="0 0 60 60" fill="none" xmlns="http://www.w3.org/2000/svg">
<path d="M59.967 16.577C59.964 16.565 59.957 16.555 59.953 16.543C59.931 16.471 59.904 16.401 59.867 16.336C59.852 16.309 59.83 16.287 59.812 16.261C59.78 16.216 59.749 16.17 59.71 16.13C59.684 16.104 59.653 16.083 59.624 16.06C59.592 16.034 59.563 16.004 59.527 15.981C59.519 15.976 59.509 15.974 59.501 15.969C59.493 15.964 59.487 15.957 59.478 15.952L41.478 6.12101C41.186 5.96201 40.836 5.95701 40.54 6.11001L0.54 26.754C0.526 26.761 0.516 26.773 0.503 26.781C0.487 26.79 0.468 26.795 0.452 26.806C0.422 26.826 0.398 26.852 0.371 26.875C0.344 26.897 0.316 26.918 0.291 26.943C0.251 26.983 0.218 27.028 0.186 27.074C0.169 27.1 0.149 27.123 0.133 27.15C0.099 27.21 0.074 27.274 0.053 27.34C0.047 27.358 0.038 27.373 0.033 27.391C0.012 27.473 0 27.558 0 27.644V44.356C0 44.748 0.229 45.104 0.586 45.266L19.586 53.91C19.601 53.917 19.618 53.914 19.633 53.92C19.751 53.968 19.874 54 20 54C20.088 54 20.175 53.986 20.26 53.963C20.288 53.955 20.313 53.942 20.341 53.932C20.382 53.917 20.425 53.906 20.464 53.885L59.464 33.444C59.794 33.272 60 32.931 60 32.559V16.831C60 16.744 59.989 16.659 59.967 16.577ZM40.986 8.13201L56.827 16.784L19.976 34.897L3.32 27.572L40.986 8.13201ZM2 29.209L19 37.082V51.447L2 43.712V29.209ZM21 51.347V37.16L58 18.457V31.954L21 51.347Z" fill="#FE6868"/>
</svg>
