<svg width="60" height="60" viewBox="0 0 60 60" fill="none" xmlns="http://www.w3.org/2000/svg">
<path d="M59.7944 25.2398V19.281H55.8218V6.95203L48.8698 0L41.9178 6.95203V19.281H36.952V6.95203L30 0L23.048 6.95203V19.281H18.0822V6.95203L11.1302 0L4.17817 6.95203V19.281H0.205582V25.2398H4.17817V44.1096H0.205582V50.0685H4.17817V60H18.0822V50.0685H23.048V60H36.952V50.0685H41.9178V60H55.8218V50.0685H59.7944V44.1096H55.8218V25.2398H59.7944ZM55.8218 21.2673H57.8081V23.2535H55.8218V21.2673ZM4.17817 48.0822H2.19188V46.0959H4.17817V48.0822ZM4.17817 23.2535H2.19188V21.2673H4.17817V23.2535ZM16.0959 58.0137H6.16447V7.77436L11.1302 2.80862L16.0959 7.77436V58.0137ZM23.048 48.0822H18.0822V46.0959H23.048V48.0822ZM23.048 44.1096H18.0822V25.2398H23.048V44.1096ZM23.048 23.2535H18.0822V21.2673H23.048V23.2535ZM34.9657 58.0137H25.0343V7.77436L30 2.80862L34.9657 7.77436V58.0137ZM41.9178 48.0822H36.952V46.0959H41.9178V48.0822ZM41.9178 44.1096H36.952V25.2398H41.9178V44.1096ZM41.9178 23.2535H36.952V21.2673H41.9178V23.2535ZM53.8355 44.1096V58.0137H43.9041V7.77436L48.8698 2.80862L53.8355 7.77436V44.1096ZM57.8081 46.0959V48.0822H55.8218V46.0959H57.8081Z" fill="#FE6868"/>
</svg>
