<svg width="60" height="60" viewBox="0 0 60 60" fill="none" xmlns="http://www.w3.org/2000/svg">
<path d="M30.9625 51.5934H17.1858C16.9519 51.5934 16.7276 51.5002 16.5627 51.3343C16.3977 51.1686 16.3057 50.9439 16.3069 50.71C16.4224 28.4079 8.05442 17.8316 7.96981 17.7274C7.74246 17.4471 7.70953 17.0563 7.88684 16.7419C8.06426 16.4275 8.4157 16.2536 8.77324 16.3031C12.8791 16.8734 16.6548 19.0696 19.9955 22.8307C22.6171 25.7823 24.9791 29.7045 27.0161 34.4885C30.4614 42.5803 31.7748 50.2463 31.8291 50.5686C31.8718 50.8236 31.8004 51.0846 31.6334 51.2821C31.4664 51.4795 31.2211 51.5934 30.9625 51.5934V51.5934ZM18.0649 49.8356H29.9004C29.4225 47.4711 28.0359 41.362 25.3866 35.1484C22.5938 28.5987 17.8342 20.693 10.6109 18.5016C11.4572 19.8909 12.6213 22.0601 13.7828 25.0478C15.7211 30.034 18.0101 38.3395 18.0649 49.8356Z" fill="#FE6868"/>
<path d="M50.9168 51.593H41.2734C40.7879 51.593 40.3945 51.1996 40.3945 50.7141C40.3945 50.2286 40.7879 49.8352 41.2734 49.8352H50.0396C50.1114 41.8845 51.7029 36.1252 53.053 32.6522C53.7172 30.9434 54.3847 29.6108 54.9338 28.6424C52.6625 29.5116 50.5684 31.2826 48.6868 33.9304C46.8322 36.5402 45.2205 39.9299 43.8964 44.005C43.7466 44.4666 43.2503 44.7192 42.789 44.5692C42.3274 44.4193 42.0746 43.9234 42.2248 43.4618C44.5651 36.2585 48.9882 27.4452 56.769 26.3651C57.127 26.3159 57.4781 26.4895 57.6553 26.8038C57.8327 27.1181 57.7997 27.5091 57.5725 27.7893C57.559 27.806 56.093 29.6521 54.6555 33.3812C53.3277 36.8264 51.7536 42.6294 51.7957 50.7095C51.7969 50.9434 51.7049 51.1682 51.5399 51.3339C51.3749 51.4997 51.1507 51.593 50.9168 51.593V51.593Z" fill="#FE6868"/>
<path d="M18.7266 51.593H9.0832C8.8493 51.593 8.625 51.4997 8.46012 51.3339C8.29512 51.1682 8.20312 50.9434 8.2043 50.7095C8.24625 42.6294 6.6723 36.8264 5.34445 33.3812C3.90715 29.6521 2.44113 27.806 2.42648 27.7879C2.20078 27.5071 2.16867 27.1164 2.34633 26.8029C2.52398 26.4894 2.87437 26.3159 3.23109 26.3651C11.012 27.4452 15.4351 36.2585 17.7754 43.4618C17.9254 43.9234 17.6727 44.4193 17.2111 44.5692C16.7496 44.7191 16.2537 44.4667 16.1037 44.005C14.7797 39.93 13.1679 36.5404 11.3133 33.9304C9.43172 31.2826 7.33758 29.5117 5.06637 28.6425C5.61539 29.6109 6.28289 30.9435 6.94711 32.6523C8.29711 36.1253 9.88875 41.8846 9.96047 49.8353H18.7266C19.212 49.8353 19.6055 50.2287 19.6055 50.7142C19.6055 51.1997 19.212 51.593 18.7266 51.593V51.593Z" fill="#FE6868"/>
<path d="M42.8145 51.593H29.0379C28.5525 51.593 28.159 51.1996 28.159 50.7141C28.159 50.2286 28.5525 49.8352 29.0379 49.8352H41.9353C41.9452 47.7388 42.0287 45.6675 42.1843 43.6652C42.9184 34.2091 45.1668 27.3861 46.9237 23.3276C47.8412 21.2084 48.7182 19.6049 49.3928 18.4978C44.7559 19.8899 40.637 23.7516 37.1235 30.0103C36.9757 30.2883 36.6834 30.4777 36.3469 30.4777C35.8614 30.4777 35.468 30.0847 35.468 29.5993V29.5982C35.468 29.4476 35.5066 29.2996 35.5803 29.1683C39.895 21.4748 45.1593 17.1465 51.2271 16.3035C51.5846 16.254 51.9362 16.4278 52.1135 16.7421C52.2908 17.0564 52.2579 17.4473 52.0307 17.7277C52.0146 17.7475 50.3312 19.8586 48.5014 24.1082C46.8118 28.0322 44.6484 34.6339 43.9369 43.8014C43.7631 46.0365 43.6811 48.3607 43.6934 50.7096C43.6946 50.9435 43.6025 51.1683 43.4375 51.334C43.2725 51.4997 43.0484 51.593 42.8145 51.593V51.593Z" fill="#FE6868"/>
<path d="M34.2012 51.593H17.1855C16.7002 51.593 16.3055 51.1996 16.3055 50.7141C16.3055 50.6439 16.3151 50.567 16.3316 50.4988C16.4388 50.0597 16.8581 49.7795 17.2966 49.8352H33.3211C33.3411 42.6244 34.0683 35.763 35.4847 29.4268C35.4861 29.4198 35.4875 29.4129 35.4892 29.406C37.6869 19.5914 40.9781 13.4218 42.7773 10.5763C35.5932 12.4841 29.4488 19.0129 24.4883 30.0212C24.2889 30.4638 23.7682 30.6608 23.3259 30.4614C22.8834 30.262 22.6863 29.7416 22.8857 29.2991C25.3847 23.7533 28.2551 19.2197 31.4175 15.8243C35.3749 11.5751 39.8169 9.08238 44.6201 8.41547C44.9782 8.36625 45.3292 8.53992 45.5064 8.85422C45.6838 9.16863 45.6507 9.55945 45.4234 9.83977C45.3722 9.90328 40.2019 16.4202 37.2087 29.7708C37.2074 29.7777 37.206 29.7845 37.2045 29.7913C35.7563 36.2621 35.0414 43.3002 35.0798 50.7095C35.081 50.9434 34.989 51.1682 34.824 51.3339C34.6593 51.4997 34.4351 51.593 34.2012 51.593V51.593Z" fill="#FE6868"/>
</svg>
