<svg width="60" height="60" viewBox="0 0 60 60" fill="none" xmlns="http://www.w3.org/2000/svg">
<path d="M53.2713 40.4672L45.4912 32.687C45.324 32.5197 45.0997 32.4218 44.8633 32.413C44.6269 32.4041 44.396 32.485 44.2168 32.6394L40.7533 35.6195L37.96 32.8262C37.873 32.7391 37.7697 32.67 37.656 32.6229C37.5422 32.5758 37.4203 32.5515 37.2972 32.5515C37.1741 32.5515 37.0522 32.5758 36.9385 32.6229C36.8247 32.67 36.7214 32.7391 36.6344 32.8262L36.6316 32.8289L33.5562 29.7532L53.6334 8.84308C56.4359 5.91021 52.7952 2.42229 49.9919 5.36133L29.9931 26.19L15.8143 12.0113C16.127 11.1654 16.1895 10.2474 15.9946 9.36693C15.7996 8.48645 15.3553 7.6807 14.7148 7.0459L11.8689 4.20044C11.7819 4.11337 11.6785 4.04429 11.5648 3.99716C11.4511 3.95004 11.3292 3.92578 11.2061 3.92578C11.0829 3.92578 10.961 3.95004 10.8473 3.99716C10.7336 4.04429 10.6302 4.11337 10.5432 4.20044L4.20547 10.5386C4.1184 10.6257 4.04932 10.729 4.00219 10.8427C3.95507 10.9565 3.93081 11.0784 3.93081 11.2015C3.93081 11.3246 3.95507 11.4465 4.00219 11.5602C4.04932 11.674 4.1184 11.7773 4.20547 11.8643L7.05093 14.7098C7.68656 15.3488 8.49223 15.7921 9.37227 15.9869C10.2523 16.1817 11.1698 16.1198 12.0157 15.8087L26.2724 30.065L17.5222 39.1783L9.19326 32.7438C8.99647 32.5919 8.74742 32.5243 8.50082 32.5559C8.25422 32.5875 8.03025 32.7157 7.87811 32.9123L5.94452 35.4153C5.86928 35.5128 5.81396 35.624 5.78173 35.7428C5.7495 35.8616 5.74098 35.9856 5.75667 36.1077C5.77235 36.2298 5.81193 36.3476 5.87315 36.4543C5.93436 36.5611 6.01601 36.6548 6.11343 36.73L6.70441 37.1866V41.0504C6.70441 41.2991 6.80318 41.5375 6.97899 41.7133C7.15481 41.8891 7.39327 41.9879 7.64191 41.9879C7.89055 41.9879 8.129 41.8891 8.30482 41.7133C8.48063 41.5375 8.57941 41.2991 8.57941 41.0504V38.6351L9.36309 39.2406V43.0179C9.36309 43.2665 9.46186 43.505 9.63768 43.6808C9.81349 43.8566 10.052 43.9554 10.3006 43.9554C10.5492 43.9554 10.7877 43.8566 10.9635 43.6808C11.1393 43.505 11.2381 43.2665 11.2381 43.0179V40.6892L12.0218 41.2946V45.0302C12.0218 45.2789 12.1206 45.5173 12.2964 45.6931C12.4722 45.8689 12.7106 45.9677 12.9593 45.9677C13.2079 45.9677 13.4464 45.8689 13.6222 45.6931C13.798 45.5173 13.8968 45.2789 13.8968 45.0302V42.7432L14.6805 43.3486V47.0425C14.6805 47.2912 14.7793 47.5296 14.9551 47.7055C15.1309 47.8813 15.3693 47.98 15.618 47.98C15.8666 47.98 16.1051 47.8813 16.2809 47.7055C16.4567 47.5296 16.5555 47.2912 16.5555 47.0425V44.7972L17.3392 45.4026V49.0997C17.3392 49.3484 17.4379 49.5868 17.6138 49.7626C17.7896 49.9385 18.028 50.0372 18.2767 50.0372C18.5253 50.0372 18.7638 49.9385 18.9396 49.7626C19.1154 49.5868 19.2142 49.3484 19.2142 49.0997V46.8511L19.9979 47.4566V51.1121C19.9979 51.3607 20.0966 51.5992 20.2724 51.775C20.4483 51.9508 20.6867 52.0496 20.9354 52.0496C21.184 52.0496 21.4225 51.9508 21.5983 51.775C21.7741 51.5992 21.8729 51.3607 21.8729 51.1121V48.9052L22.6566 49.5106V53.1244C22.6566 53.373 22.7553 53.6115 22.9311 53.7873C23.107 53.9631 23.3454 54.0619 23.5941 54.0619C23.8427 54.0619 24.0811 53.9631 24.257 53.7873C24.4328 53.6115 24.5316 53.373 24.5316 53.1244V50.9592L25.3148 51.5643V55.1367C25.3148 55.3854 25.4136 55.6238 25.5894 55.7996C25.7652 55.9754 26.0036 56.0742 26.2523 56.0742C26.5009 56.0742 26.7394 55.9754 26.9152 55.7996C27.091 55.6238 27.1898 55.3854 27.1898 55.1367V53.0128C28.3232 53.8884 28.9754 52.3822 30.5099 50.3961C30.6616 50.1993 30.729 49.9503 30.6973 49.7039C30.6656 49.4574 30.5375 49.2336 30.341 49.0814L21.5322 42.2762L29.8354 33.6284L32.8341 36.6266L32.8313 36.6293C32.6556 36.8052 32.5568 37.0436 32.5568 37.2922C32.5568 37.5408 32.6556 37.7792 32.8313 37.955L35.6248 40.7485L32.6445 44.2117C32.4902 44.391 32.4094 44.6219 32.4182 44.8583C32.427 45.0946 32.5249 45.3189 32.6921 45.4861L40.4727 53.2663C43.1793 55.9736 51.004 57.4705 54.2395 54.2349C57.4768 50.9976 55.9772 43.1735 53.2713 40.4672V40.4672ZM11.2061 6.18896L12.2045 7.18723L7.19193 12.1994L6.19399 11.2015L11.2061 6.18896ZM8.53197 13.5108L13.5165 8.52656C13.9996 9.07261 14.2555 9.78281 14.2318 10.5115C14.208 11.2402 13.9064 11.9322 13.3887 12.4457L12.4512 13.3841C11.9348 13.8965 11.2436 14.1944 10.5165 14.2179C9.78938 14.2414 9.08036 13.9888 8.53197 13.5108ZM13.6621 14.8038C14.18 14.3174 14.3444 14.151 14.8088 13.657L28.6943 27.5426L27.5712 28.7124L13.6621 14.8038ZM27.6654 51.0114C25.0632 49.0009 9.84526 37.2443 8.00171 35.82L8.78906 34.8001L28.4528 49.9915L27.6654 51.0114ZM19.0142 40.331L51.3459 6.65771C51.6432 6.34694 52.1812 5.78743 52.635 6.24115C53.0895 6.69563 52.5802 7.232 52.2793 7.54669L20.0401 41.1235L19.0142 40.331ZM31.1342 32.2758L32.2575 31.1058L35.3059 34.1547L34.1597 35.3009L31.1342 32.2758ZM37.2972 34.8148L43.8126 41.3306C45.1565 42.6745 42.6529 45.1224 41.3361 43.808L34.8198 37.2922L37.2972 34.8148ZM52.9138 52.9092C50.5275 55.2942 43.8986 54.0408 41.7984 51.9406L34.633 44.7757L36.9543 42.078L40.01 45.1337C43.0939 48.22 48.224 43.0923 45.1387 40.0049L42.0828 36.949L44.7803 34.628L51.9457 41.7929C54.0459 43.894 55.2997 50.5234 52.9138 52.9092V52.9092Z" fill="#FE6868"/>
</svg>
