<svg width="95" height="21" viewBox="0 0 95 21" fill="none" xmlns="http://www.w3.org/2000/svg">
<path d="M10.7109 20.2461C13.5 20.2461 15.6211 19.0273 17.1914 17.4688L15.9609 15.7578C14.6016 17.0938 12.7852 18.1016 10.6523 18.1016C6.78516 18.1016 3.15234 14.832 3.15234 10.5664C3.15234 6.28906 6.82031 3.00781 10.6172 3.00781C12.6914 3.00781 14.5898 3.98047 15.9492 5.375L17.1914 3.69922C15.4805 1.97656 13.125 0.863281 10.6992 0.839844C5.40234 0.839844 0.996094 5.25781 0.996094 10.5664C0.996094 15.9219 5.46094 20.2461 10.7109 20.2461ZM27.6562 20.2461C33.0117 20.2461 37.3828 15.8867 37.3828 10.5664C37.3828 5.21094 33.0117 0.839844 27.668 0.839844C22.3359 0.839844 17.9648 5.21094 17.9648 10.5664C17.9648 15.8867 22.3359 20.2461 27.6562 20.2461ZM27.6562 18.0898C23.5078 18.0898 20.1211 14.7031 20.1211 10.5547C20.1211 6.39453 23.5078 2.98438 27.6562 2.98438C31.8281 2.98438 35.2266 6.39453 35.2266 10.5547C35.2266 14.7031 31.8281 18.0898 27.6562 18.0898ZM58.6523 0.757812L49.6406 15.7812L40.6289 0.757812H40.3828V20H42.5156V7.15625L49.6289 19.6836H49.6523L56.7539 7.17969V20H58.8867V0.757812H58.6523ZM76.582 20H78.9023L70.1602 0.816406H69.9258L61.1953 20H63.5039L64.8867 16.8945H75.1992L76.582 20ZM65.7188 15.043L70.0547 5.32812L74.3789 15.043H65.7188ZM88.1484 20.2461C90.9375 20.2461 93.0586 19.0273 94.6289 17.4688L93.3984 15.7578C92.0391 17.0938 90.2227 18.1016 88.0898 18.1016C84.2227 18.1016 80.5898 14.832 80.5898 10.5664C80.5898 6.28906 84.2578 3.00781 88.0547 3.00781C90.1289 3.00781 92.0273 3.98047 93.3867 5.375L94.6289 3.69922C92.918 1.97656 90.5625 0.863281 88.1367 0.839844C82.8398 0.839844 78.4336 5.25781 78.4336 10.5664C78.4336 15.9219 82.8984 20.2461 88.1484 20.2461Z" fill="black"/>
</svg>
