<svg width="58" height="60" viewBox="0 0 58 60" fill="none" xmlns="http://www.w3.org/2000/svg">
<path d="M55.3436 58.61H8.08494C7.90062 58.61 7.72385 58.5368 7.59352 58.4065C7.46318 58.2761 7.38996 58.0994 7.38996 57.9151V10.6564C7.38996 10.472 7.46318 10.2953 7.59352 10.1649C7.72385 10.0346 7.90062 9.96138 8.08494 9.96138H55.3436C55.528 9.96138 55.7047 10.0346 55.8351 10.1649C55.9654 10.2953 56.0386 10.472 56.0386 10.6564V57.9151C56.0386 58.0994 55.9654 58.2761 55.8351 58.4065C55.7047 58.5368 55.528 58.61 55.3436 58.61ZM8.77992 57.2201H54.6487V11.3513H8.77992V57.2201Z" fill="#FE6868"/>
<path d="M8.08494 23.861C7.92366 23.861 7.76741 23.8049 7.64296 23.7023C7.51851 23.5997 7.4336 23.4571 7.4028 23.2988C7.37199 23.1405 7.3972 22.9764 7.4741 22.8346C7.55101 22.6929 7.67482 22.5823 7.82432 22.5218L19.4861 17.8049L20.6029 10.5507C20.6365 10.374 20.7372 10.2171 20.884 10.1132C21.0308 10.0092 21.2122 9.96617 21.39 9.99317C21.5679 10.0202 21.7284 10.1151 21.8377 10.2579C21.947 10.4008 21.9966 10.5805 21.9762 10.7592L20.8003 18.404C20.782 18.523 20.7331 18.6352 20.6585 18.7296C20.5838 18.824 20.4859 18.8974 20.3743 18.9426L8.34556 23.8075C8.26298 23.8421 8.17446 23.8602 8.08494 23.861V23.861Z" fill="#FE6868"/>
<path d="M18.5097 32.2008C18.3617 32.201 18.2176 32.154 18.0982 32.0666L7.67352 24.4219C7.59986 24.3678 7.53758 24.2998 7.49021 24.2217C7.44284 24.1436 7.41132 24.0569 7.39744 23.9667C7.36942 23.7843 7.41498 23.5983 7.5241 23.4496C7.63321 23.3008 7.79695 23.2015 7.97929 23.1735C8.16163 23.1455 8.34763 23.191 8.49637 23.3002L18.6487 30.7462L27.9614 28.1782L28.4798 24.2168L19.7516 18.8947C19.5942 18.7987 19.4813 18.6442 19.4379 18.465C19.3944 18.2859 19.4239 18.0968 19.5198 17.9394C19.6157 17.782 19.7703 17.6692 19.9494 17.6257C20.1286 17.5822 20.3177 17.6117 20.4751 17.7076L29.5863 23.2675C29.701 23.3376 29.793 23.4396 29.851 23.561C29.909 23.6824 29.9305 23.818 29.9129 23.9514L29.2756 28.8162C29.2579 28.9517 29.2006 29.0789 29.111 29.1819C29.0214 29.285 28.9034 29.3594 28.7717 29.3958L18.6945 32.1758C18.6343 32.1924 18.5721 32.2008 18.5097 32.2008Z" fill="#FE6868"/>
<path d="M12.9498 41.583C12.8545 41.583 12.7602 41.5633 12.6728 41.5253C12.5854 41.4873 12.5068 41.4317 12.4418 41.362L7.57691 36.1496C7.51223 36.0834 7.46143 36.0049 7.42751 35.9187C7.39359 35.8326 7.37723 35.7405 7.37939 35.6479C7.38155 35.5554 7.40219 35.4642 7.44008 35.3797C7.47798 35.2952 7.53238 35.2191 7.60009 35.156C7.66779 35.0928 7.74743 35.0438 7.83434 35.0119C7.92124 34.9799 8.01366 34.9656 8.10615 34.9699C8.19865 34.9741 8.28936 34.9968 8.37296 35.0367C8.45656 35.0765 8.53136 35.1326 8.59297 35.2017L12.8247 39.7357L17.912 31.1513C18.0076 30.9962 18.1604 30.8849 18.3373 30.8413C18.5143 30.7977 18.7013 30.8254 18.858 30.9184C19.0148 31.0113 19.1287 31.1621 19.1754 31.3383C19.222 31.5145 19.1976 31.7019 19.1073 31.8602L13.5475 41.2425C13.4924 41.3353 13.4164 41.4141 13.3256 41.4725C13.2347 41.5309 13.1315 41.5673 13.0242 41.5788C12.9995 41.5816 12.9747 41.583 12.9498 41.583V41.583Z" fill="#FE6868"/>
<path d="M15.4288 58.61C15.2867 58.6099 15.148 58.5663 15.0315 58.4849C14.915 58.4035 14.8262 58.2884 14.7771 58.1551C14.728 58.0217 14.721 57.8765 14.757 57.739C14.793 57.6015 14.8703 57.4784 14.9785 57.3862L22.0422 51.3697L21.3389 44.9008L13.1937 41.729L8.6444 47.9025C8.53374 48.0471 8.3707 48.1426 8.19037 48.1683C8.01005 48.194 7.82685 48.1478 7.68019 48.0398C7.53354 47.9318 7.43516 47.7705 7.40623 47.5906C7.37729 47.4108 7.42012 47.2268 7.52548 47.0782L12.3903 40.4759C12.4809 40.3529 12.6095 40.2631 12.7563 40.2205C12.903 40.1779 13.0597 40.1849 13.2021 40.2403L22.2368 43.759C22.3553 43.8052 22.4589 43.883 22.5362 43.984C22.6135 44.085 22.6617 44.2052 22.6754 44.3317L23.4642 51.5852C23.4764 51.6978 23.4608 51.8117 23.4189 51.917C23.377 52.0222 23.31 52.1157 23.2237 52.1891L15.8798 58.4439C15.754 58.5512 15.5941 58.6101 15.4288 58.61Z" fill="#FE6868"/>
<path d="M31.7143 58.61C31.572 58.6098 31.4333 58.5659 31.3168 58.4842L22.3758 52.2294C22.298 52.1784 22.2313 52.1123 22.1795 52.035C22.1277 51.9577 22.092 51.8708 22.0744 51.7795C22.0568 51.6881 22.0578 51.5942 22.0772 51.5032C22.0966 51.4122 22.1341 51.326 22.1874 51.2498C22.2408 51.1736 22.3089 51.1088 22.3877 51.0594C22.4665 51.01 22.5544 50.9769 22.6463 50.9621C22.7381 50.9473 22.832 50.9511 22.9224 50.9732C23.0127 50.9954 23.0977 51.0354 23.1723 51.091L32.1132 57.3459C32.2343 57.4307 32.3251 57.5519 32.3726 57.6918C32.4201 57.8318 32.4217 57.9833 32.3772 58.1242C32.3327 58.2651 32.2445 58.3882 32.1253 58.4756C32.006 58.563 31.8621 58.6101 31.7143 58.61Z" fill="#FE6868"/>
<path d="M21.9846 45.101C21.8414 45.1011 21.7016 45.0569 21.5845 44.9745C21.4674 44.8921 21.3785 44.7756 21.3302 44.6408C21.2818 44.506 21.2762 44.3596 21.3143 44.2215C21.3523 44.0835 21.432 43.9605 21.5426 43.8695L28.5069 38.1449L27.8919 28.771C27.8799 28.5867 27.9416 28.4052 28.0635 28.2664C28.1854 28.1276 28.3574 28.0429 28.5417 28.0309C28.726 28.0189 28.9076 28.0806 29.0464 28.2025C29.1852 28.3244 29.2699 28.4964 29.2819 28.6807L29.9192 38.4104C29.9263 38.5204 29.9071 38.6306 29.8632 38.7317C29.8193 38.8329 29.752 38.9221 29.6669 38.9921L22.4259 44.9432C22.3015 45.0453 22.1455 45.1011 21.9846 45.101V45.101Z" fill="#FE6868"/>
<path d="M29.2263 24.556C29.0602 24.556 28.8996 24.4966 28.7736 24.3884C28.6475 24.2803 28.5644 24.1306 28.5392 23.9665C28.514 23.8023 28.5484 23.6346 28.6362 23.4936C28.724 23.3527 28.8593 23.2478 29.0178 23.198L35.0002 21.3215L31.5204 10.876C31.4915 10.7893 31.4801 10.6977 31.4866 10.6066C31.4931 10.5155 31.5176 10.4265 31.5585 10.3448C31.5994 10.2631 31.656 10.1903 31.7251 10.1304C31.7941 10.0706 31.8743 10.025 31.961 9.99614C32.0477 9.9673 32.1392 9.95582 32.2304 9.96235C32.3215 9.96889 32.4105 9.99331 32.4922 10.0342C32.5739 10.0751 32.6467 10.1317 32.7065 10.2008C32.7664 10.2699 32.812 10.3501 32.8408 10.4368L36.5451 21.5564C36.5742 21.644 36.5856 21.7365 36.5786 21.8286C36.5716 21.9206 36.5464 22.0103 36.5043 22.0925C36.4623 22.1747 36.4043 22.2476 36.3337 22.3071C36.2631 22.3666 36.1814 22.4115 36.0934 22.4391L29.4354 24.524C29.3677 24.5452 29.2972 24.556 29.2263 24.556V24.556Z" fill="#FE6868"/>
<path d="M42.139 40.5405C42.1142 40.5405 42.0893 40.5391 42.0646 40.5364L29.1498 39.1464C28.9667 39.1266 28.799 39.035 28.6834 38.8917C28.5679 38.7484 28.5139 38.565 28.5334 38.3819C28.5413 38.2906 28.5677 38.2017 28.6108 38.1208C28.6539 38.0399 28.713 37.9685 28.7843 37.9109C28.8557 37.8534 28.938 37.8108 29.0262 37.7858C29.1145 37.7608 29.2069 37.7539 29.2978 37.7655L41.4899 39.0776L42.1202 28.9962L35.3921 22.2681C35.3123 22.1884 35.2531 22.0905 35.2197 21.9828C35.1862 21.8751 35.1794 21.7608 35.1999 21.65C35.2205 21.5391 35.2677 21.4348 35.3375 21.3462C35.4073 21.2577 35.4976 21.1874 35.6006 21.1415L47.5765 15.8187L46.3256 10.8259C46.2822 10.6477 46.3112 10.4595 46.4061 10.3025C46.5009 10.1454 46.6541 10.0323 46.832 9.98772C47.01 9.94314 47.1983 9.97073 47.356 10.0645C47.5137 10.1582 47.628 10.3105 47.6738 10.4882L49.0638 16.048C49.1036 16.2067 49.0861 16.3744 49.0144 16.5215C48.9427 16.6686 48.8214 16.7857 48.6718 16.8521L37.0865 22.0005L43.3212 28.2352C43.3908 28.3049 43.4449 28.3885 43.4797 28.4807C43.5146 28.5728 43.5295 28.6713 43.5234 28.7696L42.8284 39.8893C42.8173 40.065 42.74 40.2299 42.612 40.3508C42.4841 40.4717 42.315 40.5395 42.139 40.5405V40.5405Z" fill="#FE6868"/>
<path d="M55.3436 17.9537C55.309 17.9539 55.2743 17.9513 55.2401 17.946L48.2903 16.9035C48.108 16.8759 47.9441 16.777 47.8348 16.6285C47.7254 16.4801 47.6795 16.2943 47.7072 16.112C47.7348 15.9297 47.8338 15.7658 47.9822 15.6565C48.1307 15.5471 48.3165 15.5012 48.4988 15.5289L55.4486 16.5713C55.6222 16.5973 55.7796 16.688 55.8891 16.8253C55.9986 16.9626 56.0521 17.1362 56.0388 17.3113C56.0255 17.4864 55.9464 17.6499 55.8175 17.7691C55.6885 17.8883 55.5192 17.9542 55.3436 17.9537V17.9537Z" fill="#FE6868"/>
<path d="M49.0888 30.8108C49.0381 30.8108 48.9875 30.8052 48.938 30.7941L42.6832 29.4042C42.5927 29.3858 42.5068 29.3495 42.4304 29.2976C42.3541 29.2456 42.2889 29.179 42.2386 29.1015C42.1883 29.0241 42.154 28.9374 42.1376 28.8465C42.1212 28.7556 42.1231 28.6624 42.1431 28.5723C42.1632 28.4821 42.201 28.3969 42.2543 28.3215C42.3077 28.2462 42.3755 28.1822 42.4539 28.1333C42.5322 28.0845 42.6195 28.0517 42.7107 28.037C42.8019 28.0223 42.895 28.0259 42.9848 28.0476L48.8226 29.3444L54.8064 22.0311C54.9241 21.8917 55.0919 21.8041 55.2736 21.7873C55.4553 21.7705 55.6363 21.8258 55.7775 21.9413C55.9188 22.0568 56.009 22.2233 56.0285 22.4047C56.0481 22.5861 55.9956 22.768 55.8822 22.911L49.6274 30.5557C49.5622 30.6355 49.48 30.6998 49.3868 30.7439C49.2937 30.7881 49.1919 30.8109 49.0888 30.8108Z" fill="#FE6868"/>
<path d="M55.3436 42.6255C55.2172 42.6256 55.0931 42.5913 54.9847 42.5261C54.8763 42.461 54.7878 42.3675 54.7286 42.2557L48.4737 30.4411C48.431 30.3604 48.4046 30.2721 48.396 30.1812C48.3875 30.0903 48.3969 29.9986 48.4237 29.9114C48.4505 29.8241 48.4943 29.743 48.5525 29.6727C48.6107 29.6024 48.6822 29.5442 48.7629 29.5015C48.8435 29.4587 48.9318 29.4323 49.0227 29.4238C49.1136 29.4152 49.2053 29.4246 49.2925 29.4514C49.3798 29.4783 49.4609 29.522 49.5312 29.5802C49.6016 29.6384 49.6598 29.7099 49.7025 29.7906L55.9573 41.6052C56.0134 41.7111 56.0411 41.8297 56.0378 41.9494C56.0346 42.0692 56.0004 42.1861 55.9387 42.2887C55.8769 42.3914 55.7897 42.4763 55.6854 42.5353C55.5812 42.5943 55.4634 42.6254 55.3436 42.6255V42.6255Z" fill="#FE6868"/>
<path d="M27.0934 55.3791C26.9333 55.3796 26.7779 55.3249 26.6535 55.2241C26.5291 55.1233 26.4433 54.9827 26.4106 54.826C26.3779 54.6693 26.4004 54.5061 26.4741 54.364C26.5479 54.2219 26.6684 54.1096 26.8154 54.0461L36.7536 49.7372L41.5073 39.5516C41.5501 39.4604 41.6122 39.3797 41.6893 39.3149C41.7664 39.2501 41.8567 39.2029 41.9538 39.1765C42.051 39.15 42.1527 39.145 42.252 39.1618C42.3513 39.1786 42.4458 39.2167 42.5289 39.2736L55.7335 48.3083C55.8124 48.3582 55.8805 48.4235 55.9336 48.5003C55.9867 48.5771 56.0238 48.6638 56.0427 48.7552C56.0616 48.8466 56.0618 48.9409 56.0435 49.0324C56.0251 49.124 55.9885 49.2109 55.9358 49.2879C55.8831 49.365 55.8154 49.4307 55.7368 49.481C55.6582 49.5314 55.5702 49.5653 55.4782 49.5809C55.3861 49.5965 55.2919 49.5934 55.2011 49.5718C55.1102 49.5502 55.0247 49.5105 54.9496 49.4551L42.4225 40.8818L37.9052 50.5642C37.8335 50.7183 37.7076 50.8406 37.5514 50.9076L27.37 55.3214C27.2827 55.3594 27.1885 55.379 27.0934 55.3791Z" fill="#FE6868"/>
<path d="M42.139 58.61H42.107C41.9954 58.6052 41.8865 58.5734 41.7897 58.5175C41.6929 58.4616 41.6111 58.3832 41.551 58.289L36.6862 50.6442C36.5872 50.4886 36.5541 50.3001 36.5941 50.1201C36.6341 49.9401 36.744 49.7834 36.8995 49.6844C37.0551 49.5854 37.2436 49.5523 37.4236 49.5923C37.6036 49.6323 37.7603 49.7422 37.8593 49.8978L42.1932 56.7086L50.731 45.675C50.7869 45.6029 50.8564 45.5424 50.9357 45.4971C51.0149 45.4517 51.1023 45.4225 51.1928 45.4109C51.2833 45.3994 51.3753 45.4057 51.4633 45.4297C51.5514 45.4537 51.6339 45.4948 51.7061 45.5506C51.7783 45.6065 51.8388 45.676 51.8841 45.7553C51.9294 45.8345 51.9587 45.9219 51.9702 46.0124C51.9818 46.103 51.9754 46.1949 51.9514 46.283C51.9274 46.371 51.8864 46.4535 51.8305 46.5257L42.6887 58.3404C42.6238 58.4243 42.5404 58.4923 42.4452 58.539C42.3499 58.5857 42.2451 58.61 42.139 58.61Z" fill="#FE6868"/>
<g clip-path="url(#clip0_1_83)">
<path d="M15.003 13.7089C14.7662 13.7089 14.5741 13.9011 14.5741 14.1378C14.5741 16.2658 12.8423 17.9976 10.7143 17.9976C10.4775 17.9976 10.2854 18.1898 10.2854 18.4265C10.2854 18.6632 10.4775 18.8554 10.7143 18.8554C13.3158 18.8554 15.4318 16.7393 15.4318 14.1378C15.4318 13.9011 15.2397 13.7089 15.003 13.7089Z" fill="#AA3434"/>
<path d="M13.3107 3.52248C12.5035 2.37654 11.7419 1.29322 11.0823 0.193613C10.927 -0.0645784 10.5016 -0.0645784 10.3463 0.193613C9.68673 1.29322 8.92509 2.37654 8.11795 3.52248C5.8098 6.80159 3.42358 10.1914 3.42358 14.1378C3.42358 18.158 6.69411 21.4285 10.7143 21.4285C14.7345 21.4285 18.0051 18.158 18.0051 14.1378C18.005 10.1914 15.6188 6.80163 13.3107 3.52248ZM10.7143 20.5708C7.16667 20.5708 4.28124 17.6854 4.28124 14.1378C4.28124 10.4633 6.58768 7.18588 8.81949 4.01568C9.46194 3.10219 10.1233 2.16297 10.7142 1.23061C11.3052 2.16297 11.9665 3.10219 12.609 4.01568C14.8409 7.18588 17.1473 10.4633 17.1473 14.1378C17.1473 17.6854 14.2619 20.5708 10.7143 20.5708Z" fill="#AA3434"/>
</g>
<defs>
<clipPath id="clip0_1_83">
<rect width="21.4286" height="21.4286" fill="white"/>
</clipPath>
</defs>
</svg>
