<svg width="60" height="60" viewBox="0 0 60 60" fill="none" xmlns="http://www.w3.org/2000/svg">
<path d="M58.8281 0H1.17188C0.524648 0 0 0.524766 0 1.17188V58.8281C0 59.4752 0.524648 60 1.17188 60H58.8281C59.4754 60 60 59.4752 60 58.8281V1.17188C60 0.524766 59.4754 0 58.8281 0ZM2.34375 2.34375H57.6562V19.2188H21.5625V11.7188C21.5625 11.0716 21.0379 10.5469 20.3906 10.5469C19.7434 10.5469 19.2188 11.0716 19.2188 11.7188V38.4375H2.34375V2.34375ZM38.4375 21.5626V38.4375H21.5625V21.5625L38.4375 21.5626ZM2.34375 57.6562V40.7812H38.4375V57.6562H2.34375ZM57.6562 57.6562H40.7812V21.5626V21.5625H57.6562V57.6562Z" fill="#FE6868"/>
<path d="M20.3906 7.61766C21.0379 7.61766 21.5625 7.09289 21.5625 6.44578V6.44484C21.5625 5.79773 21.0379 5.27344 20.3906 5.27344C19.7434 5.27344 19.2188 5.79855 19.2188 6.44578C19.2188 7.09301 19.7434 7.61766 20.3906 7.61766V7.61766Z" fill="#FE6868"/>
</svg>
