<svg width="60" height="60" viewBox="0 0 60 60" fill="none" xmlns="http://www.w3.org/2000/svg">
<path d="M45.0103 50.9916C47.685 40.6615 47.685 32.2311 45.0103 21.8947C44.6728 20.5949 44.9666 19.1887 45.8164 18.0327C47.1976 16.1516 47.4412 14.4456 46.4664 13.4707C44.8166 11.8208 42.0606 14.0957 41.2857 14.433V8.25867C41.2857 3.70922 37.5799 0.00328064 33.0303 0.00328064H26.9685C22.4189 0.00328064 18.7131 3.7091 18.7131 8.25867V14.433C17.9006 14.0769 15.1822 11.8208 13.5387 13.4707C12.5638 14.4456 12.8075 16.1516 14.1949 18.0452C15.0385 19.1889 15.326 20.5887 14.9885 21.8886C12.3138 32.225 12.3138 40.6554 14.9885 50.9917C15.326 52.2915 15.0322 53.6977 14.1824 54.8475C12.8012 56.7286 12.5576 58.4346 13.5387 59.4158C14.476 60.3532 16.1321 60.147 17.9694 58.8596C19.0193 58.1285 20.3566 57.891 21.6377 58.1972C27.1059 59.5096 32.8866 59.5096 38.3546 58.1972C39.6419 57.891 40.9794 58.1347 42.0293 58.8659C43.3916 59.8096 45.3102 60.5657 46.4664 59.4158C47.4412 58.4409 47.1913 56.7286 45.8039 54.8413C44.9603 53.6913 44.6728 52.2914 45.0103 50.9916V50.9916ZM23.0876 8.25867C23.0876 6.12141 24.8311 4.37789 26.9685 4.37789H33.0303C35.1676 4.37789 36.9112 6.12141 36.9112 8.25867V14.383C32.3618 13.4893 27.6373 13.4893 23.0877 14.383V8.25867H23.0876ZM45.5789 58.5282C45.054 59.0532 43.7791 58.5595 42.748 57.8408C41.4043 56.9034 39.6983 56.5909 38.061 56.9846C32.7865 58.2532 27.2059 58.2532 21.9314 56.9846C20.3003 56.5909 18.6005 56.9034 17.2569 57.8345C16.2946 58.5032 14.976 59.0906 14.4197 58.5281C13.826 57.9407 14.4634 56.5784 15.1946 55.5909C16.2633 54.1349 16.6319 52.3413 16.2008 50.6727C13.5824 40.5613 13.5824 32.3183 16.2008 22.2007C16.6321 20.5384 16.2696 18.7511 15.201 17.3012C14.4136 16.2326 13.8698 14.9014 14.4198 14.3515C15.7196 13.0516 17.9069 16.9075 21.9752 15.8889C27.2497 14.6327 32.8116 14.6327 38.0797 15.9014C39.7233 16.2952 41.4544 15.9451 42.7418 15.0516C43.7791 14.3266 45.054 13.8267 45.579 14.3516C46.1727 14.9453 45.5353 16.3077 44.8104 17.295C43.7354 18.7511 43.3668 20.5446 43.798 22.2069C46.4164 32.3183 46.4164 40.5675 43.798 50.6789C43.3668 52.3412 43.7292 54.1286 44.7978 55.5784C45.5852 56.6473 46.1289 57.9784 45.5789 58.5282V58.5282Z" fill="#FE6868"/>
<path d="M34.4828 47V27H25.5172V47H34.4828Z" fill="#FE6868"/>
<path d="M30.3449 42.9852V44.3152C30.3449 44.5059 30.1908 44.66 30.0001 44.66C29.8094 44.66 29.6552 44.5059 29.6552 44.3152V42.9852C29.6552 42.7948 29.8094 42.6403 30.0001 42.6403C30.1908 42.6403 30.3449 42.7948 30.3449 42.9852ZM30.3449 39.66V40.99C30.3449 41.1807 30.1908 41.3348 30.0001 41.3348C29.8094 41.3348 29.6552 41.1807 29.6552 40.99V39.66C29.6552 39.4696 29.8094 39.3151 30.0001 39.3151C30.1908 39.3151 30.3449 39.4696 30.3449 39.66ZM30.3449 36.3348V37.6652C30.3449 37.8555 30.1908 38.01 30.0001 38.01C29.8094 38.01 29.6552 37.8555 29.6552 37.6652V36.3348C29.6552 36.1445 29.8094 35.99 30.0001 35.99C30.1908 35.99 30.3449 36.1445 30.3449 36.3348ZM30.3449 33.01V34.34C30.3449 34.5303 30.1908 34.6848 30.0001 34.6848C29.8094 34.6848 29.6552 34.5303 29.6552 34.34V33.01C29.6552 32.8196 29.8094 32.6651 30.0001 32.6651C30.1908 32.6651 30.3449 32.8196 30.3449 33.01ZM30.3449 29.6848V31.0148C30.3449 31.2052 30.1908 31.3597 30.0001 31.3597C29.8094 31.3597 29.6552 31.2052 29.6552 31.0148V29.6848C29.6552 29.4941 29.8094 29.34 30.0001 29.34C30.1908 29.34 30.3449 29.4941 30.3449 29.6848Z" fill="white"/>
</svg>
