<svg width="61" height="60" viewBox="0 0 61 60" fill="none" xmlns="http://www.w3.org/2000/svg">
<g clip-path="url(#clip0_5_17)">
<path d="M56.9151 49.9187C57.3095 49.455 57.6796 48.9261 58.02 48.3331C59.3726 45.9769 60.1174 42.8631 60.1174 39.5653C60.1174 36.2676 59.3726 33.1537 58.02 30.7976C56.5789 28.2874 54.6098 26.9054 52.4743 26.9054H46.8076C48.5977 25.1533 49.9141 22.2101 50.3594 18.6023C50.4191 18.1198 50.076 17.6799 49.5935 17.6203C49.111 17.5602 48.6711 17.9038 48.6115 18.3867C48.0019 23.3228 45.5894 26.9054 42.8746 26.9054H19.8508C20.4379 26.3275 20.9795 25.6143 21.4616 24.7745C22.8142 22.4184 23.559 19.3045 23.559 16.0068C23.559 12.7085 22.8142 9.59516 21.4616 7.23902C20.9795 6.39876 20.4374 5.68554 19.8503 5.10763H24.2947C24.7814 5.10763 25.1754 4.71364 25.1754 4.227C25.1754 3.74083 24.7814 3.34638 24.2947 3.34638C24.2947 3.34638 15.9136 3.34684 15.9127 3.34684C13.779 3.34821 11.8109 4.73015 10.3707 7.23902C9.01816 9.59516 8.2733 12.709 8.2733 16.0068C8.2733 19.3045 9.01816 22.4184 10.3707 24.7745C10.8533 25.6148 11.3949 26.3275 11.982 26.9054H7.6431C5.50804 26.9054 3.53856 28.2878 2.09745 30.7976C0.744863 33.1537 0 36.2676 0 39.5653C0 42.8631 0.744863 45.9769 2.09745 48.3331C2.43778 48.9261 2.80791 49.455 3.20236 49.9187C2.22542 50.6544 1.6287 51.8125 1.6287 53.0747V54.8153C1.6287 55.9482 2.55061 56.8701 3.68349 56.8701H9.61763C10.1043 56.8701 10.4983 56.4757 10.4983 55.9895C10.4983 55.5028 10.1043 55.1089 9.61763 55.1089H3.68349C3.52159 55.1089 3.38995 54.9772 3.38995 54.8153V53.0747C3.38995 52.2693 3.82797 51.54 4.52192 51.1566C5.48511 51.857 6.54186 52.2253 7.6431 52.2253H52.4743C53.5756 52.2253 54.6323 51.857 55.5955 51.1566C56.2894 51.54 56.7275 52.2693 56.7275 53.0747V54.8153C56.7275 54.9772 56.5958 55.1089 56.4339 55.1089H13.6309C13.1443 55.1089 12.7503 55.5028 12.7503 55.9895C12.7503 56.4757 13.1443 56.8701 13.6309 56.8701H56.4339C57.5668 56.8701 58.4887 55.9482 58.4887 54.8153V53.0747C58.4887 51.8125 57.892 50.6544 56.9151 49.9187V49.9187ZM31.398 39.5653C31.398 45.4729 28.7043 50.464 25.5161 50.464C22.3275 50.464 19.6343 45.4729 19.6343 39.5653C19.6343 33.6578 22.3275 28.6667 25.5161 28.6667C28.7043 28.6667 31.398 33.6573 31.398 39.5653ZM10.0346 16.0063C10.0346 10.0988 12.7278 5.10763 15.9164 5.10763C19.1045 5.10763 21.7983 10.0988 21.7983 16.0063C21.7983 21.9115 19.1073 26.9004 15.921 26.905H15.9164C15.9159 26.905 15.9155 26.9054 15.9146 26.9054C12.7273 26.9036 10.0346 21.9134 10.0346 16.0063ZM1.76125 39.5653C1.76125 33.6578 4.4545 28.6667 7.6431 28.6667C10.8312 28.6667 13.525 33.6578 13.525 39.5653C13.525 45.4729 10.8312 50.464 7.6431 50.464C4.4545 50.464 1.76125 45.4729 1.76125 39.5653ZM11.5775 50.464C12.1646 49.8861 12.7062 49.1729 13.1883 48.3331C14.5409 45.9769 15.2857 42.8631 15.2857 39.5653C15.2857 36.2676 14.5409 33.1537 13.1883 30.7976C12.7062 29.9573 12.1646 29.2446 11.5775 28.6667H21.5818C20.9947 29.2446 20.453 29.9578 19.971 30.7976C18.6179 33.1537 17.873 36.2676 17.873 39.5653C17.873 42.8631 18.6179 45.9769 19.971 48.3331C20.453 49.1733 20.9947 49.8861 21.5818 50.464H11.5775ZM29.4505 50.464C30.0376 49.8861 30.5793 49.1729 31.0613 48.3331C32.4139 45.9769 33.1588 42.8631 33.1588 39.5653C33.1588 36.2676 32.4139 33.1537 31.0613 30.7976C30.5793 29.9573 30.0376 29.2446 29.4505 28.6667H52.4743C55.6625 28.6667 58.3562 33.6578 58.3562 39.5653C58.3562 45.4729 55.6629 50.464 52.4743 50.464H29.4505Z" fill="#FE6868"/>
<path d="M7.6431 49.16C10.3565 49.16 12.4031 45.0353 12.4031 39.5653C12.4031 34.0954 10.3565 29.9702 7.6431 29.9702C4.92921 29.9702 2.88313 34.0954 2.88313 39.5653C2.88313 45.0353 4.92921 49.16 7.6431 49.16V49.16ZM7.6431 31.7314C8.89524 31.7314 10.6418 34.7118 10.6418 39.5653C10.6418 44.4189 8.89524 47.3988 7.6431 47.3988C6.39096 47.3988 4.64439 44.4189 4.64439 39.5653C4.64439 34.7118 6.39096 31.7314 7.6431 31.7314V31.7314Z" fill="#FE6868"/>
<path d="M7.64311 45.0193C8.12929 45.0193 8.52373 44.6253 8.52373 44.1386V34.9916C8.52373 34.5054 8.12929 34.111 7.64311 34.111C7.15647 34.111 6.76248 34.5054 6.76248 34.9916V44.1386C6.76248 44.6253 7.15647 45.0193 7.64311 45.0193V45.0193Z" fill="#FE6868"/>
<path d="M25.5161 49.16C28.23 49.16 30.2761 45.0353 30.2761 39.5653C30.2761 34.0954 28.23 29.9702 25.5161 29.9702C22.8023 29.9702 20.7562 34.0954 20.7562 39.5653C20.7562 45.0353 22.8023 49.16 25.5161 49.16V49.16ZM25.5161 31.7314C26.7683 31.7314 28.5149 34.7118 28.5149 39.5653C28.5149 44.4189 26.7683 47.3988 25.5161 47.3988C24.264 47.3988 22.5174 44.4189 22.5174 39.5653C22.5174 34.7118 24.264 31.7314 25.5161 31.7314V31.7314Z" fill="#FE6868"/>
<path d="M25.5161 45.0193C26.0023 45.0193 26.3968 44.6253 26.3968 44.1386V34.9916C26.3968 34.5054 26.0023 34.111 25.5161 34.111C25.03 34.111 24.6355 34.5054 24.6355 34.9916V44.1386C24.6355 44.6253 25.03 45.0193 25.5161 45.0193V45.0193Z" fill="#FE6868"/>
<path d="M28.308 5.10763H42.8746C45.7499 5.10763 48.3097 9.25391 48.7023 14.5464C48.7367 15.0092 49.1229 15.3619 49.5797 15.3619C49.6017 15.3619 49.6238 15.361 49.6458 15.3596C50.131 15.3234 50.4952 14.9009 50.459 14.4161C50.2393 11.4569 49.3999 8.71866 48.095 6.7056C46.6906 4.53935 44.8367 3.34638 42.8746 3.34638H28.308C27.8214 3.34638 27.4274 3.74037 27.4274 4.227C27.4274 4.71364 27.8214 5.10763 28.308 5.10763Z" fill="#FE6868"/>
<path d="M15.9164 25.6015C18.6298 25.6015 20.6764 21.4763 20.6764 16.0063C20.6764 10.5363 18.6298 6.4116 15.9164 6.4116C13.2025 6.4116 11.1564 10.5363 11.1564 16.0063C11.1564 21.4763 13.2025 25.6015 15.9164 25.6015ZM15.9164 8.17285C17.1685 8.17285 18.9151 11.1532 18.9151 16.0068C18.9151 20.8598 17.1685 23.8402 15.9164 23.8402C14.6643 23.8402 12.9177 20.8598 12.9177 16.0068C12.9177 11.1528 14.6643 8.17285 15.9164 8.17285Z" fill="#FE6868"/>
<path d="M15.9164 21.4607C16.4026 21.4607 16.797 21.0667 16.797 20.5801V11.433C16.797 10.9464 16.4026 10.5524 15.9164 10.5524C15.4298 10.5524 15.0358 10.9464 15.0358 11.433V20.5801C15.0358 21.0662 15.4298 21.4607 15.9164 21.4607Z" fill="#FE6868"/>
<path d="M39.2379 46.0352H39.2269C38.7402 46.0352 38.3517 46.4296 38.3517 46.9158C38.3517 47.4025 38.7512 47.7964 39.2374 47.7964C39.724 47.7964 40.118 47.4025 40.118 46.9158C40.118 46.4296 39.724 46.0352 39.2379 46.0352Z" fill="#FE6868"/>
<path d="M41.3693 44.9991H41.3582C40.8721 44.9991 40.4831 45.3935 40.4831 45.8797C40.4831 46.3663 40.8826 46.7603 41.3688 46.7603C41.8554 46.7603 42.2494 46.3663 42.2494 45.8797C42.2494 45.3935 41.8554 44.9991 41.3693 44.9991Z" fill="#FE6868"/>
<path d="M43.0828 20.5255L43.0718 20.5259C42.5856 20.531 42.2008 20.9291 42.2058 21.4157C42.2109 21.8987 42.6095 22.2867 43.0915 22.2867H43.1011C43.5878 22.2817 43.9776 21.8831 43.9726 21.3969C43.9676 20.914 43.574 20.5255 43.092 20.5255C43.0892 20.5255 43.086 20.5255 43.0828 20.5255Z" fill="#FE6868"/>
<path d="M39.2429 24.009C39.7295 24.009 40.1235 23.615 40.1235 23.1284C40.1235 22.6422 39.7295 22.2477 39.2429 22.2477H39.2324C38.7457 22.2477 38.3568 22.6422 38.3568 23.1284C38.3568 23.615 38.7567 24.009 39.2429 24.009Z" fill="#FE6868"/>
<path d="M38.6393 9.37087C39.1259 9.36583 39.5158 8.96725 39.5108 8.48107C39.5057 7.9981 39.1122 7.60962 38.6301 7.60962C38.6274 7.60962 38.6237 7.60962 38.621 7.60962L38.61 7.61008C38.1233 7.61512 37.739 8.01324 37.744 8.49988C37.7491 8.98285 38.1476 9.37087 38.6297 9.37087H38.6393Z" fill="#FE6868"/>
<path d="M32.7822 10.5524H32.7712C32.285 10.5524 31.8961 10.9464 31.8961 11.433C31.8961 11.9192 32.2956 12.3136 32.7822 12.3136C33.2684 12.3136 33.6629 11.9192 33.6629 11.433C33.6629 10.9464 33.2684 10.5524 32.7822 10.5524Z" fill="#FE6868"/>
<path d="M34.2577 14.146C34.7439 14.146 35.1384 13.752 35.1384 13.2653C35.1384 12.7792 34.7439 12.3847 34.2577 12.3847H34.2467C33.7601 12.3847 33.3716 12.7792 33.3716 13.2653C33.3716 13.752 33.7711 14.146 34.2577 14.146Z" fill="#FE6868"/>
<path d="M27.1343 20.9273C27.6205 20.9273 28.0149 20.5328 28.0149 20.0466C28.0149 19.56 27.6205 19.166 27.1343 19.166H27.1233C26.6371 19.166 26.2482 19.56 26.2482 20.0466C26.2482 20.5328 26.6477 20.9273 27.1343 20.9273Z" fill="#FE6868"/>
<path d="M16.88 30.7018H16.869C16.3824 30.7018 15.9939 31.0962 15.9939 31.5824C15.9939 32.069 16.3934 32.463 16.88 32.463C17.3662 32.463 17.7607 32.069 17.7607 31.5824C17.7607 31.0962 17.3662 30.7018 16.88 30.7018Z" fill="#FE6868"/>
<path d="M44.1873 33.2574H44.1762C43.6901 33.2574 43.3011 33.6518 43.3011 34.138C43.3011 34.6247 43.7006 35.0187 44.1868 35.0187C44.6734 35.0187 45.0674 34.6247 45.0674 34.138C45.0674 33.6518 44.6734 33.2574 44.1873 33.2574Z" fill="#FE6868"/>
<path d="M53.7448 39.5979C53.742 39.5979 53.7388 39.5979 53.7356 39.5979H53.7246C53.238 39.603 52.8536 40.0015 52.8587 40.4877C52.8637 40.9711 53.2623 41.3592 53.7443 41.3592H53.754C54.2402 41.3541 54.6305 40.9555 54.6254 40.4694C54.6204 39.9859 54.2269 39.5979 53.7448 39.5979Z" fill="#FE6868"/>
</g>
<defs>
<clipPath id="clip0_5_17">
<rect width="60.1174" height="60" fill="white"/>
</clipPath>
</defs>
</svg>
